<?xml version="1.0" encoding="utf-8"?>
<svg xmlns="http://www.w3.org/2000/svg" viewBox="0 0 16 16" width="512" height="512">
  <path fill="#e1ebf2" d="M3.5,10.5c-1.654,0-3-1.346-3-3c0-1.475,1.107-2.746,2.576-2.955l0.429-0.062V4.05L3.497,3.949 C3.5,2.07,5.07,0.5,7,0.5c1.627,0,3.025,1.11,3.398,2.7l0.117,0.496l0.493-0.125C11.196,3.522,11.353,3.5,11.5,3.5 c0.993,0,1.841,0.748,1.972,1.739l0.041,0.307l0.293,0.101C14.819,5.994,15.5,6.94,15.5,8c0,1.378-1.122,2.5-2.5,2.5H3.5z" />
  <path fill="#b0c1d4" d="M7,1c1.394,0,2.591,0.952,2.912,2.314l0.233,0.992l0.987-0.251C11.277,4.017,11.394,4,11.5,4 c0.743,0,1.378,0.561,1.476,1.304l0.081,0.614l0.586,0.201C14.455,6.398,15,7.153,15,8c0,1.103-0.897,2-2,2H3.5 C2.121,10,1,8.878,1,7.5c0-1.228,0.923-2.285,2.146-2.46l0.868-0.124L4.005,4.039c0-0.03-0.002-0.059-0.005-0.088 C4.027,2.319,5.362,1,7,1 M7,0C4.791,0,3,1.791,3,4c0,0.017,0.005,0.033,0.005,0.05C1.309,4.292,0,5.737,0,7.5 C0,9.433,1.567,11,3.5,11H13c1.657,0,3-1.343,3-3c0-1.316-0.853-2.422-2.033-2.826C13.806,3.949,12.769,3,11.5,3 c-0.213,0-0.417,0.035-0.615,0.085C10.47,1.319,8.893,0,7,0L7,0z" />
</svg>