<?xml version="1.0" encoding="UTF-8"?>
<svg id="Layer_1" data-name="Layer 1" xmlns="http://www.w3.org/2000/svg" xmlns:xlink="http://www.w3.org/1999/xlink" viewBox="0 0 812.67 217.83">
  <defs>
    <style>
      .cls-1 {
        fill: url(#linear-gradient-13);
      }

      .cls-2 {
        clip-path: url(#clippath-6);
      }

      .cls-3 {
        clip-path: url(#clippath-4);
      }

      .cls-4 {
        fill: url(#linear-gradient-2);
      }

      .cls-5 {
        fill: url(#linear-gradient-10);
      }

      .cls-6 {
        fill: url(#linear-gradient-12);
      }

      .cls-7 {
        fill: none;
      }

      .cls-8 {
        fill: url(#linear-gradient-4);
      }

      .cls-9 {
        fill: url(#linear-gradient-3);
      }

      .cls-10 {
        clip-path: url(#clippath-1);
      }

      .cls-11 {
        fill: url(#linear-gradient-5);
      }

      .cls-12 {
        clip-path: url(#clippath-5);
      }

      .cls-13 {
        fill: url(#linear-gradient-8);
      }

      .cls-14 {
        clip-path: url(#clippath-3);
      }

      .cls-15 {
        fill: url(#linear-gradient-7);
      }

      .cls-16 {
        fill: url(#linear-gradient-9);
      }

      .cls-17 {
        fill: url(#linear-gradient-11);
      }

      .cls-18 {
        fill: url(#linear-gradient-6);
      }

      .cls-19 {
        clip-path: url(#clippath-2);
      }

      .cls-20 {
        fill: url(#linear-gradient);
      }

      .cls-21 {
        clip-path: url(#clippath);
      }
    </style>
    <clipPath id="clippath">
      <path class="cls-7" d="M609.22,56.92s114.83-38.35,192.88-20.53v107.26l-169.08-10.79-23.8-75.94Z"/>
    </clipPath>
    <linearGradient id="linear-gradient" x1="705.6" y1="78.58" x2="703.63" y2="-4.85" gradientUnits="userSpaceOnUse">
      <stop offset="0" stop-color="#abd400"/>
      <stop offset="1" stop-color="#006900"/>
    </linearGradient>
    <linearGradient id="linear-gradient-2" x1="2.1" y1="114.28" x2="802.1" y2="114.28" xlink:href="#linear-gradient"/>
    <linearGradient id="linear-gradient-3" x1="2.1" y1="114.28" x2="802.1" y2="114.28" xlink:href="#linear-gradient"/>
    <clipPath id="clippath-1">
      <path class="cls-9" d="M669.41,74.9S521.49,4.73,439.6,16.86c-81.89,12.13-135.6,38.42-176.1,34.38-40.5-4.04-124.81-46.51-261.4,2.7v159.17h800v-64.12l-132.69-74.08Z"/>
    </clipPath>
    <linearGradient id="linear-gradient-4" x1="2.1" y1="114.28" x2="802.1" y2="114.28" xlink:href="#linear-gradient"/>
    <linearGradient id="linear-gradient-5" x1="2.1" y1="114.28" x2="802.1" y2="114.28" xlink:href="#linear-gradient"/>
    <clipPath id="clippath-2">
      <path class="cls-11" d="M669.41,74.9S521.49,4.73,439.6,16.86c-81.89,12.13-135.6,38.42-176.1,34.38-40.5-4.04-124.81-46.51-261.4,2.7v159.17h800v-64.12l-132.69-74.08Z"/>
    </clipPath>
    <linearGradient id="linear-gradient-6" x1="-556.88" y1="643.62" x2="-556.78" y2="643.62" gradientTransform="translate(-1402311.52 1194858.62) rotate(90.44) scale(2165.01 -2165.01)" xlink:href="#linear-gradient"/>
    <linearGradient id="linear-gradient-7" x1="213.9" y1="143.7" x2="802.1" y2="143.7" xlink:href="#linear-gradient"/>
    <linearGradient id="linear-gradient-8" x1="213.9" y1="143.7" x2="802.1" y2="143.7" xlink:href="#linear-gradient"/>
    <clipPath id="clippath-3">
      <path class="cls-13" d="M224.59,124.55s178.33-4.55,206.5-13.09c28.18-8.54,258.92-83.08,371.01,6.55v95.1H213.9l10.69-88.55Z"/>
    </clipPath>
    <linearGradient id="linear-gradient-9" x1="213.9" y1="143.7" x2="802.1" y2="143.7" xlink:href="#linear-gradient"/>
    <linearGradient id="linear-gradient-10" x1="213.9" y1="143.7" x2="802.1" y2="143.7" xlink:href="#linear-gradient"/>
    <clipPath id="clippath-4">
      <path class="cls-5" d="M224.59,124.55s178.33-4.55,206.5-13.09c28.18-8.54,258.92-83.08,371.01,6.55v95.1H213.9l10.69-88.55Z"/>
    </clipPath>
    <linearGradient id="linear-gradient-11" x1="-556.96" y1="643.77" x2="-556.91" y2="643.77" gradientTransform="translate(-2376485.11 2035572.72) rotate(90.29) scale(3676.28 -3676.28)" xlink:href="#linear-gradient"/>
    <linearGradient id="linear-gradient-12" x1="2.1" y1="159.39" x2="802.1" y2="159.39" gradientUnits="userSpaceOnUse">
      <stop offset="0" stop-color="#006900"/>
      <stop offset=".91" stop-color="#a6d100"/>
      <stop offset="1" stop-color="#abd400"/>
    </linearGradient>
    <clipPath id="clippath-5">
      <path class="cls-6" d="M802.1,213.11s-143.25-72.44-304.09-60.75c-160.84,11.68-360.42-58.42-423.82-44.94C10.79,120.9,2.1,120.9,2.1,120.9v92.21h800Z"/>
    </clipPath>
    <clipPath id="clippath-6">
      <path class="cls-6" d="M802.1,213.11s-143.25-72.44-304.09-60.75c-160.84,11.68-360.42-58.42-423.82-44.94C10.79,120.9,2.1,120.9,2.1,120.9v92.21h800Z"/>
    </clipPath>
    <linearGradient id="linear-gradient-13" x1="-558.12" y1="643.16" x2="-558.02" y2="643.16" gradientTransform="translate(-826787.95 725511.6) rotate(89.7) scale(1292.01 -1292.01)" xlink:href="#linear-gradient-12"/>
  </defs>
  <g class="cls-21">
    <path class="cls-20" d="M812.67,19.09l-202.64-10.08-11.38,134.11,202.64,10.08,11.38-134.11Z"/>
  </g>
  <g>
    <path class="cls-4" d="M669.41,74.9S521.49,4.73,439.6,16.86c-81.89,12.13-135.6,38.42-176.1,34.38-40.5-4.04-124.81-46.51-261.4,2.7v159.17h800v-64.12l-132.69-74.08Z"/>
    <g class="cls-10">
      <g>
        <path class="cls-8" d="M669.41,74.9S521.49,4.73,439.6,16.86c-81.89,12.13-135.6,38.42-176.1,34.38-40.5-4.04-124.81-46.51-261.4,2.7v159.17h800v-64.12l-132.69-74.08Z"/>
        <g class="cls-19">
          <path class="cls-18" d="M804.2,4.74L2.15,0,0,213.09l802.05,4.74,2.15-213.09Z"/>
        </g>
      </g>
    </g>
  </g>
  <g>
    <path class="cls-15" d="M224.59,124.55s178.33-4.55,206.5-13.09c28.18-8.54,258.92-83.08,371.01,6.55v95.1H213.9l10.69-88.55Z"/>
    <g class="cls-14">
      <g>
        <path class="cls-16" d="M224.59,124.55s178.33-4.55,206.5-13.09c28.18-8.54,258.92-83.08,371.01,6.55v95.1H213.9l10.69-88.55Z"/>
        <g class="cls-3">
          <path class="cls-17" d="M803.32,28.39l-589.41-2.28-1.24,187,589.41,2.28,1.24-187Z"/>
        </g>
      </g>
    </g>
  </g>
  <g>
    <path class="cls-6" d="M802.1,213.11s-143.25-72.44-304.09-60.75c-160.84,11.68-360.42-58.42-423.82-44.94C10.79,120.9,2.1,120.9,2.1,120.9v92.21h800Z"/>
    <g class="cls-12">
      <g>
        <path class="cls-6" d="M802.1,213.11s-143.25-72.44-304.09-60.75c-160.84,11.68-360.42-58.42-423.82-44.94C10.79,120.9,2.1,120.9,2.1,120.9v92.21h800Z"/>
        <g class="cls-2">
          <path class="cls-1" d="M802.08,90.74L1.29,93.94l.83,122.37,800.79-3.2-.83-122.37Z"/>
        </g>
      </g>
    </g>
  </g>
</svg>