<?xml version="1.0" encoding="UTF-8"?>
<svg id="Layer_1" data-name="Layer 1" xmlns="http://www.w3.org/2000/svg" xmlns:xlink="http://www.w3.org/1999/xlink" viewBox="0 0 812.67 217.83">
  <defs>
    <style>
      .cls-1 {
        clip-path: url(#clippath-6);
      }

      .cls-2 {
        clip-path: url(#clippath-4);
      }

      .cls-3 {
        fill: url(#linear-gradient-2);
      }

      .cls-4 {
        fill: none;
      }

      .cls-5 {
        fill: url(#linear-gradient-4);
      }

      .cls-6 {
        fill: url(#linear-gradient-3);
      }

      .cls-7 {
        clip-path: url(#clippath-1);
      }

      .cls-8 {
        fill: url(#linear-gradient-5);
      }

      .cls-9 {
        clip-path: url(#clippath-5);
      }

      .cls-10 {
        fill: url(#linear-gradient-8);
      }

      .cls-11 {
        clip-path: url(#clippath-3);
      }

      .cls-12 {
        fill: url(#linear-gradient-7);
      }

      .cls-13 {
        fill: url(#linear-gradient-6);
      }

      .cls-14 {
        clip-path: url(#clippath-2);
      }

      .cls-15 {
        fill: url(#linear-gradient);
      }

      .cls-16 {
        clip-path: url(#clippath);
      }
    </style>
    <linearGradient id="linear-gradient" x1="609.22" y1="149.1" x2="802.1" y2="149.1" gradientTransform="translate(0 236.75) scale(1 -1)" gradientUnits="userSpaceOnUse">
      <stop offset="0" stop-color="#abd400"/>
      <stop offset=".17" stop-color="#a6c300"/>
      <stop offset=".62" stop-color="#b37d00"/>
    </linearGradient>
    <clipPath id="clippath">
      <path class="cls-4" d="M609.22,56.92s114.83-38.35,192.88-20.53v107.26l-169.08-10.79-23.8-75.94Z"/>
    </clipPath>
    <linearGradient id="linear-gradient-2" x1="705.6" y1="158.17" x2="703.63" y2="241.6" xlink:href="#linear-gradient"/>
    <linearGradient id="linear-gradient-3" x1="2.1" y1="122.47" x2="802.1" y2="122.47" gradientTransform="translate(0 236.75) scale(1 -1)" gradientUnits="userSpaceOnUse">
      <stop offset=".08" stop-color="#b37d00"/>
      <stop offset=".45" stop-color="#a6c500"/>
      <stop offset="1" stop-color="#a6c300"/>
      <stop offset="1" stop-color="#abd400"/>
    </linearGradient>
    <clipPath id="clippath-1">
      <path class="cls-4" d="M669.41,74.9S521.49,4.73,439.6,16.86s-135.6,38.42-176.1,34.38S138.69,4.73,2.1,53.94v159.17h800v-64.12l-132.69-74.08h0Z"/>
    </clipPath>
    <clipPath id="clippath-2">
      <path class="cls-4" d="M669.41,74.9S521.49,4.73,439.6,16.86s-135.6,38.42-176.1,34.38S138.69,4.73,2.1,53.94v159.17h800v-64.12l-132.69-74.08h0Z"/>
    </clipPath>
    <linearGradient id="linear-gradient-4" x1="-1109.23" y1="14.48" x2="-1109.13" y2="14.48" gradientTransform="translate(13300 2401602.49) rotate(90.44) scale(2165.01)" xlink:href="#linear-gradient-3"/>
    <linearGradient id="linear-gradient-5" x1="213.9" y1="93.06" x2="802.1" y2="93.06" gradientTransform="translate(0 236.75) scale(1 -1)" gradientUnits="userSpaceOnUse">
      <stop offset=".19" stop-color="#b37d00"/>
      <stop offset=".74" stop-color="#a6c300"/>
      <stop offset="1" stop-color="#abd400"/>
    </linearGradient>
    <clipPath id="clippath-3">
      <path class="cls-4" d="M224.59,124.55s178.33-4.55,206.5-13.09c28.18-8.54,258.92-83.08,371.01,6.55v95.1H213.9l10.69-88.55h0Z"/>
    </clipPath>
    <clipPath id="clippath-4">
      <path class="cls-4" d="M224.59,124.55s178.33-4.55,206.5-13.09c28.18-8.54,258.92-83.08,371.01,6.55v95.1H213.9l10.69-88.55h0Z"/>
    </clipPath>
    <linearGradient id="linear-gradient-6" x1="-1109.39" y1="14.46" x2="-1109.34" y2="14.46" gradientTransform="translate(33028.2 4078667.51) rotate(90.29) scale(3676.28)" xlink:href="#linear-gradient-5"/>
    <linearGradient id="linear-gradient-7" x1="2.1" y1="77.35" x2="802.1" y2="77.35" gradientTransform="translate(0 236.75) scale(1 -1)" gradientUnits="userSpaceOnUse">
      <stop offset="0" stop-color="#b37d00"/>
      <stop offset=".86" stop-color="#a6c100"/>
      <stop offset=".91" stop-color="#a6c300"/>
      <stop offset="1" stop-color="#abd400"/>
    </linearGradient>
    <clipPath id="clippath-5">
      <path class="cls-4" d="M802.1,213.11s-143.25-72.44-304.09-60.75c-160.84,11.68-360.42-58.42-423.82-44.94C10.79,120.9,2.1,120.9,2.1,120.9v92.21h800Z"/>
    </clipPath>
    <clipPath id="clippath-6">
      <path class="cls-4" d="M802.1,213.11s-143.25-72.44-304.09-60.75c-160.84,11.68-360.42-58.42-423.82-44.94C10.79,120.9,2.1,120.9,2.1,120.9v92.21h800Z"/>
    </clipPath>
    <linearGradient id="linear-gradient-8" x1="-1110.33" y1="14.79" x2="-1110.23" y2="14.79" gradientTransform="translate(27015.41 1434513.53) rotate(89.7) scale(1292.01)" xlink:href="#linear-gradient-7"/>
  </defs>
  <g>
    <path class="cls-15" d="M609.22,56.92s114.83-38.35,192.88-20.53v107.26l-169.08-10.79-23.8-75.94Z"/>
    <g class="cls-16">
      <path class="cls-3" d="M812.67,19.09l-202.64-10.08-11.38,134.11,202.64,10.08s11.38-134.11,11.38-134.11Z"/>
    </g>
  </g>
  <g>
    <path class="cls-6" d="M669.41,74.9S521.49,4.73,439.6,16.86c-81.89,12.13-135.6,38.42-176.1,34.38-40.5-4.04-124.81-46.51-261.4,2.7v159.17h800v-64.12l-132.69-74.08h0Z"/>
    <g class="cls-7">
      <g>
        <path class="cls-6" d="M669.41,74.9S521.49,4.73,439.6,16.86c-81.89,12.13-135.6,38.42-176.1,34.38-40.5-4.04-124.81-46.51-261.4,2.7v159.17h800v-64.12l-132.69-74.08h0Z"/>
        <g class="cls-14">
          <path class="cls-5" d="M804.2,4.74L2.15,0,0,213.09l802.05,4.74s2.15-213.09,2.15-213.09Z"/>
        </g>
      </g>
    </g>
  </g>
  <g>
    <path class="cls-8" d="M224.59,124.55s178.33-4.55,206.5-13.09c28.18-8.54,258.92-83.08,371.01,6.55v95.1H213.9l10.69-88.55h0Z"/>
    <g class="cls-11">
      <g>
        <path class="cls-8" d="M224.59,124.55s178.33-4.55,206.5-13.09c28.18-8.54,258.92-83.08,371.01,6.55v95.1H213.9l10.69-88.55h0Z"/>
        <g class="cls-2">
          <path class="cls-13" d="M803.32,28.39l-589.41-2.28-1.24,187,589.41,2.28,1.24-187Z"/>
        </g>
      </g>
    </g>
  </g>
  <g>
    <path class="cls-12" d="M802.1,213.11s-143.25-72.44-304.09-60.75c-160.84,11.68-360.42-58.42-423.82-44.94C10.79,120.9,2.1,120.9,2.1,120.9v92.21h800Z"/>
    <g class="cls-9">
      <g>
        <path class="cls-12" d="M802.1,213.11s-143.25-72.44-304.09-60.75c-160.84,11.68-360.42-58.42-423.82-44.94C10.79,120.9,2.1,120.9,2.1,120.9v92.21h800Z"/>
        <g class="cls-1">
          <path class="cls-10" d="M802.08,90.74L1.29,93.94l.83,122.37,800.79-3.2-.83-122.37h0Z"/>
        </g>
      </g>
    </g>
  </g>
</svg>