<?xml version="1.0" encoding="UTF-8"?>
<svg id="Layer_1" data-name="Layer 1" xmlns="http://www.w3.org/2000/svg" xmlns:xlink="http://www.w3.org/1999/xlink" viewBox="0 0 812.67 217.83">
  <defs>
    <style>
      .cls-1 {
        clip-path: url(#clippath-6);
      }

      .cls-2 {
        clip-path: url(#clippath-4);
      }

      .cls-3 {
        fill: url(#linear-gradient-2);
      }

      .cls-4 {
        fill: url(#linear-gradient-4);
      }

      .cls-5 {
        fill: url(#linear-gradient-3);
      }

      .cls-6 {
        clip-path: url(#clippath-1);
      }

      .cls-7 {
        fill: url(#linear-gradient-5);
      }

      .cls-8 {
        clip-path: url(#clippath-5);
      }

      .cls-9 {
        fill: url(#linear-gradient-8);
      }

      .cls-10 {
        clip-path: url(#clippath-3);
      }

      .cls-11 {
        fill: url(#linear-gradient-7);
      }

      .cls-12 {
        fill: url(#linear-gradient-6);
      }

      .cls-13 {
        clip-path: url(#clippath-2);
      }

      .cls-14 {
        fill: url(#linear-gradient);
      }

      .cls-15 {
        clip-path: url(#clippath);
      }
    </style>
    <linearGradient id="linear-gradient" x1="609.22" y1="87.66" x2="802.1" y2="87.66" gradientUnits="userSpaceOnUse">
      <stop offset="0" stop-color="#006900"/>
      <stop offset=".35" stop-color="#567b4f"/>
      <stop offset=".64" stop-color="#98898c"/>
      <stop offset=".85" stop-color="#c192b2"/>
      <stop offset=".96" stop-color="#d196c1"/>
      <stop offset="1" stop-color="#d497c3"/>
    </linearGradient>
    <clipPath id="clippath">
      <path class="cls-14" d="M609.22,56.92s114.83-38.35,192.88-20.53v107.26l-169.08-10.79-23.8-75.94Z"/>
    </clipPath>
    <linearGradient id="linear-gradient-2" x1="705.6" y1="78.58" x2="703.63" y2="-4.85" xlink:href="#linear-gradient"/>
    <linearGradient id="linear-gradient-3" x1="2.1" y1="114.28" x2="802.1" y2="114.28" gradientUnits="userSpaceOnUse">
      <stop offset="0" stop-color="#d497c3"/>
      <stop offset=".04" stop-color="#d196c1"/>
      <stop offset=".12" stop-color="#a88d9b"/>
      <stop offset=".23" stop-color="#7b8372"/>
      <stop offset=".34" stop-color="#557b4f"/>
      <stop offset=".45" stop-color="#367432"/>
      <stop offset=".57" stop-color="#1e6f1c"/>
      <stop offset=".7" stop-color="#0d6b0c"/>
      <stop offset=".83" stop-color="#036902"/>
      <stop offset="1" stop-color="#006900"/>
    </linearGradient>
    <clipPath id="clippath-1">
      <path class="cls-5" d="M669.41,74.9S521.49,4.73,439.6,16.86c-81.89,12.13-135.6,38.42-176.1,34.38-40.5-4.04-124.81-46.51-261.4,2.7v159.17h800v-64.12l-132.69-74.08Z"/>
    </clipPath>
    <clipPath id="clippath-2">
      <path class="cls-5" d="M669.41,74.9S521.49,4.73,439.6,16.86c-81.89,12.13-135.6,38.42-176.1,34.38-40.5-4.04-124.81-46.51-261.4,2.7v159.17h800v-64.12l-132.69-74.08Z"/>
    </clipPath>
    <linearGradient id="linear-gradient-4" x1="-556.88" y1="643.62" x2="-556.78" y2="643.62" gradientTransform="translate(-1402311.52 1194858.62) rotate(90.44) scale(2165.01 -2165.01)" xlink:href="#linear-gradient-3"/>
    <linearGradient id="linear-gradient-5" x1="213.9" y1="143.7" x2="802.1" y2="143.7" gradientUnits="userSpaceOnUse">
      <stop offset="0" stop-color="#d497c3"/>
      <stop offset=".04" stop-color="#d196c1"/>
      <stop offset=".18" stop-color="#a48c97"/>
      <stop offset=".39" stop-color="#6a7f62"/>
      <stop offset=".59" stop-color="#3c7637"/>
      <stop offset=".76" stop-color="#1b6e19"/>
      <stop offset=".9" stop-color="#076a06"/>
      <stop offset="1" stop-color="#006900"/>
    </linearGradient>
    <clipPath id="clippath-3">
      <path class="cls-7" d="M224.59,124.55s178.33-4.55,206.5-13.09c28.18-8.54,258.92-83.08,371.01,6.55v95.1H213.9l10.69-88.55Z"/>
    </clipPath>
    <clipPath id="clippath-4">
      <path class="cls-7" d="M224.59,124.55s178.33-4.55,206.5-13.09c28.18-8.54,258.92-83.08,371.01,6.55v95.1H213.9l10.69-88.55Z"/>
    </clipPath>
    <linearGradient id="linear-gradient-6" x1="-556.96" y1="643.77" x2="-556.91" y2="643.77" gradientTransform="translate(-2376485.11 2035572.72) rotate(90.29) scale(3676.28 -3676.28)" xlink:href="#linear-gradient-5"/>
    <linearGradient id="linear-gradient-7" x1="2.1" y1="159.39" x2="802.1" y2="159.39" gradientUnits="userSpaceOnUse">
      <stop offset="0" stop-color="#d497c3"/>
      <stop offset=".04" stop-color="#d196c1"/>
      <stop offset=".37" stop-color="#7f8475"/>
      <stop offset=".67" stop-color="#3a7536"/>
      <stop offset=".89" stop-color="#106c0e"/>
      <stop offset="1" stop-color="#006900"/>
    </linearGradient>
    <clipPath id="clippath-5">
      <path class="cls-11" d="M802.1,213.11s-143.25-72.44-304.09-60.75c-160.84,11.68-360.42-58.42-423.82-44.94C10.79,120.9,2.1,120.9,2.1,120.9v92.21h800Z"/>
    </clipPath>
    <clipPath id="clippath-6">
      <path class="cls-11" d="M802.1,213.11s-143.25-72.44-304.09-60.75c-160.84,11.68-360.42-58.42-423.82-44.94C10.79,120.9,2.1,120.9,2.1,120.9v92.21h800Z"/>
    </clipPath>
    <linearGradient id="linear-gradient-8" x1="-558.12" y1="643.16" x2="-558.02" y2="643.16" gradientTransform="translate(-826787.95 725511.6) rotate(89.7) scale(1292.01 -1292.01)" xlink:href="#linear-gradient-7"/>
  </defs>
  <g>
    <path class="cls-14" d="M609.22,56.92s114.83-38.35,192.88-20.53v107.26l-169.08-10.79-23.8-75.94Z"/>
    <g class="cls-15">
      <path class="cls-3" d="M812.67,19.09l-202.64-10.08-11.38,134.11,202.64,10.08,11.38-134.11Z"/>
    </g>
  </g>
  <g>
    <path class="cls-5" d="M669.41,74.9S521.49,4.73,439.6,16.86c-81.89,12.13-135.6,38.42-176.1,34.38-40.5-4.04-124.81-46.51-261.4,2.7v159.17h800v-64.12l-132.69-74.08Z"/>
    <g class="cls-6">
      <g>
        <path class="cls-5" d="M669.41,74.9S521.49,4.73,439.6,16.86c-81.89,12.13-135.6,38.42-176.1,34.38-40.5-4.04-124.81-46.51-261.4,2.7v159.17h800v-64.12l-132.69-74.08Z"/>
        <g class="cls-13">
          <path class="cls-4" d="M804.2,4.74L2.15,0,0,213.09l802.05,4.74,2.15-213.09Z"/>
        </g>
      </g>
    </g>
  </g>
  <g>
    <path class="cls-7" d="M224.59,124.55s178.33-4.55,206.5-13.09c28.18-8.54,258.92-83.08,371.01,6.55v95.1H213.9l10.69-88.55Z"/>
    <g class="cls-10">
      <g>
        <path class="cls-7" d="M224.59,124.55s178.33-4.55,206.5-13.09c28.18-8.54,258.92-83.08,371.01,6.55v95.1H213.9l10.69-88.55Z"/>
        <g class="cls-2">
          <path class="cls-12" d="M803.32,28.39l-589.41-2.28-1.24,187,589.41,2.28,1.24-187Z"/>
        </g>
      </g>
    </g>
  </g>
  <g>
    <path class="cls-11" d="M802.1,213.11s-143.25-72.44-304.09-60.75c-160.84,11.68-360.42-58.42-423.82-44.94C10.79,120.9,2.1,120.9,2.1,120.9v92.21h800Z"/>
    <g class="cls-8">
      <g>
        <path class="cls-11" d="M802.1,213.11s-143.25-72.44-304.09-60.75c-160.84,11.68-360.42-58.42-423.82-44.94C10.79,120.9,2.1,120.9,2.1,120.9v92.21h800Z"/>
        <g class="cls-1">
          <path class="cls-9" d="M802.08,90.74L1.29,93.94l.83,122.37,800.79-3.2-.83-122.37Z"/>
        </g>
      </g>
    </g>
  </g>
</svg>