<?xml version="1.0" encoding="utf-8"?>
<!-- Generator: Adobe Illustrator 29.0.0, SVG Export Plug-In . SVG Version: 9.03 Build 54978)  -->
<svg version="1.1" baseProfile="basic" id="Layer_1"
	 xmlns="http://www.w3.org/2000/svg" xmlns:xlink="http://www.w3.org/1999/xlink" x="0px" y="0px" viewBox="0 0 1920 1080"
	 xml:space="preserve">
<path fill="#8CCFB9" d="M1052.6,467c6.8-12.8,10.8-27.2,10.8-42.8c0-50.4-40.8-91.6-91.2-91.6c-50.4,0-91.2,41.2-91.2,91.6
	c0,2,0,4.4,0.4,6.4C834.6,446.6,801,491,801,543c0,65.6,52.8,118.8,118.4,118.8h98.4c55.2,0,100-45.2,100-100.4
	C1117.8,518.2,1090.6,481.4,1052.6,467"/>
<path fill="#72A998" d="M972.2,332.6C972.2,332.6,972.2,332.6,972.2,332.6C972.1,332.6,972.1,332.6,972.2,332.6c-0.1,0-0.1,0-0.1,0
	c0,0,0,0,0,0c-14.3,0-27.9,3.4-39.9,9.3c-5.3,2.6-10.4,5.8-15.1,9.5c2.4-0.4,5.2-0.4,7.6-0.4c50.4,0,91.2,40.8,91.2,91.6
	c0,15.6-4,30-10.8,42.8c38,14.4,65.2,51.2,65.2,94.4c0,33.5-16.3,63-41.3,81.4c50-5.6,88.9-48.3,88.9-99.7c0,0,0,0,0,0
	c0,0,0-0.1,0-0.1c0-43.2-27.2-80-65.2-94.4c6.8-12.8,10.8-27.2,10.8-42.8C1063.4,373.8,1022.6,332.6,972.2,332.6"/>
<path fill="#454B54" d="M1017.8,674.2h-98.4c-72,0-130.4-58.8-130.4-130.8c0-53.2,32-100.4,80-120.8c1.2-56,46.8-101.6,103.2-101.6
	c56.8,0,103.2,46.4,103.2,103.6c0,12.4-2.4,25.2-6.8,36.8c37.2,19.2,61.2,58,61.2,100.4C1129.8,623.4,1079.4,674.2,1017.8,674.2
	L1017.8,674.2z M972.2,345c-43.6,0-79.2,35.6-79.2,79.6c0,2,0,3.6,0.4,5.6c0.4,5.6-2.8,10.4-8,12C841.8,456.6,813,497.4,813,543
	c0,58.8,47.6,106.8,106.4,106.8h98.4c48.8,0,88-39.6,88-88.4c0-36.8-23.2-70.4-57.6-83.2c-3.2-1.2-5.6-3.6-7.2-6.8
	c-1.6-3.2-1.2-6.8,0.8-10c6-11.2,9.2-24.4,9.2-37.2C1051.4,380.6,1015.8,345,972.2,345L972.2,345z"/>
<path fill="#454B54" d="M959.4,761c-6.8,0-12-5.2-12-12V463.8c0-6.8,5.2-12,12-12c6.8,0,12,5.2,12,12V749
	C971.4,755.4,966.2,761,959.4,761L959.4,761z"/>
<path fill="#454B54" d="M959.4,555c-1.6,0-3.6-0.4-5.2-1.2l-72.8-34.4c-6-2.8-8.4-10-5.6-16c2.8-6,10-8.4,16-5.6l72.8,34.8
	c6,2.8,8.4,10,5.6,16C968.2,552.6,963.8,555,959.4,555L959.4,555z M959.4,628.6c-4.4,0-8.8-2.4-10.8-6.8c-2.8-6-0.4-13.2,5.2-16
	l72.4-36c6-2.8,13.2-0.4,16,5.2c2.8,6,0.4,13.2-5.2,16l-72.4,36C963,628.2,961.4,628.6,959.4,628.6L959.4,628.6z"/>
<g>
	<path fill="#F78F8F" d="M867.8,592.9c-5.5,0-10-4.5-10-10c0-4.3,6.5-13.7,10-18.1c3.4,4.4,10,13.8,10,18.1
		C877.8,588.4,873.3,592.9,867.8,592.9L867.8,592.9z M867.8,561.2c-3.4-4.4-10-13.8-10-18.1c0-5.5,4.5-10,10-10c5.5,0,10,4.5,10,10
		C877.8,547.4,871.3,556.8,867.8,561.2L867.8,561.2z"/>
	<path fill="#C74343" d="M867.8,534.2c4.9,0,8.9,4,8.9,8.9c0,3.4-4.9,11-8.9,16.3c-4-5.3-8.9-12.9-8.9-16.3
		C859,538.2,863,534.2,867.8,534.2 M867.8,566.6c4,5.3,8.9,12.9,8.9,16.3c0,4.9-4,8.9-8.9,8.9c-4.9,0-8.9-4-8.9-8.9
		C859,579.6,863.9,571.9,867.8,566.6 M867.8,532c-6.1,0-11.1,5-11.1,11.1s11.1,19.9,11.1,19.9s11.1-13.8,11.1-19.9
		S874,532,867.8,532L867.8,532z M867.8,563c0,0-11.1,13.8-11.1,19.9s5,11.1,11.1,11.1c6.1,0,11.1-5,11.1-11.1S867.8,563,867.8,563
		L867.8,563z"/>
	<g>
		<defs>
			<rect id="SVGID_1_" x="839.4" y="532" width="56.8" height="62"/>
		</defs>
		<clipPath id="SVGID_00000062886332287933667000000001508705615989280951_">
			<use xlink:href="#SVGID_1_"  overflow="visible"/>
		</clipPath>
		<path clip-path="url(#SVGID_00000062886332287933667000000001508705615989280951_)" fill="#F78F8F" d="M885.1,582.9
			c-1.7,0-3.5-0.5-5-1.3c-3.7-2.2-8.6-12.5-10.7-17.7c2.4-0.3,7.4-0.9,12.1-0.9c5.2,0,7.6,0.7,8.6,1.3c2.3,1.3,4,3.5,4.6,6
			c0.7,2.6,0.3,5.3-1,7.6C892,581,888.6,582.9,885.1,582.9L885.1,582.9z M854.2,563c-5.2,0-7.6-0.7-8.6-1.3c-2.3-1.3-4-3.5-4.6-6
			c-0.7-2.6-0.3-5.3,1-7.6c1.8-3.1,5.1-5,8.6-5c1.7,0,3.5,0.5,5,1.3c3.7,2.2,8.6,12.5,10.7,17.7C863.9,562.4,858.9,563,854.2,563
			C854.2,563,854.2,563,854.2,563L854.2,563z"/>
		<path clip-path="url(#SVGID_00000062886332287933667000000001508705615989280951_)" fill="#C74343" d="M850.6,544.2
			c1.5,0,3.1,0.4,4.4,1.2c2.9,1.7,7.1,9.7,9.7,15.8c-2.6,0.3-6.7,0.7-10.5,0.7c-5.3,0-7.3-0.7-8.1-1.2c-2-1.2-3.5-3.1-4.1-5.4
			c-0.6-2.3-0.3-4.7,0.9-6.7C844.5,545.9,847.4,544.2,850.6,544.2 M881.5,564.1c5.3,0,7.3,0.7,8.1,1.2c4.2,2.4,5.7,7.9,3.2,12.1
			c-1.6,2.7-4.5,4.4-7.7,4.4c-1.5,0-3.1-0.4-4.4-1.2c-2.9-1.7-7.1-9.7-9.7-15.8C873.6,564.5,877.7,564.1,881.5,564.1 M850.6,542
			c-3.8,0-7.5,2-9.6,5.5c-3.1,5.3-1.2,12.1,4.1,15.1c1.9,1.1,5.5,1.5,9.2,1.5c6.5,0,13.6-1.1,13.6-1.1s-6.4-16.5-11.7-19.6
			C854.4,542.4,852.5,542,850.6,542L850.6,542z M881.5,561.9c-6.5,0-13.6,1.1-13.6,1.1s6.4,16.5,11.7,19.6c1.7,1,3.6,1.5,5.5,1.5
			c3.8,0,7.5-2,9.6-5.5c3.1-5.3,1.2-12.1-4.1-15.1C888.7,562.3,885.2,561.9,881.5,561.9L881.5,561.9z"/>
		<path clip-path="url(#SVGID_00000062886332287933667000000001508705615989280951_)" fill="#F78F8F" d="M850.6,582.9
			c-3.6,0-6.9-1.9-8.6-5c-1.3-2.3-1.7-5-1-7.6c0.7-2.6,2.3-4.7,4.6-6c1-0.6,3.4-1.3,8.6-1.3c4.7,0,9.7,0.6,12.1,0.9
			c-2.1,5.2-7,15.5-10.7,17.7C854,582.5,852.3,582.9,850.6,582.9L850.6,582.9z M881.5,563c-4.7,0-9.7-0.6-12.1-0.9
			c2.1-5.2,7-15.5,10.7-17.7c1.5-0.9,3.2-1.3,5-1.3c3.6,0,6.9,1.9,8.6,5c1.3,2.3,1.7,5,1,7.6c-0.7,2.6-2.3,4.7-4.6,6
			C889,562.3,886.7,563,881.5,563L881.5,563z"/>
		<path clip-path="url(#SVGID_00000062886332287933667000000001508705615989280951_)" fill="#C74343" d="M885.1,544.2
			c3.2,0,6.1,1.7,7.7,4.4c1.2,2,1.5,4.4,0.9,6.7c-0.6,2.3-2.1,4.2-4.1,5.4c-0.8,0.4-2.8,1.2-8.1,1.2c-3.8,0-7.9-0.4-10.5-0.7
			c2.6-6.1,6.8-14.1,9.7-15.8C882,544.6,883.5,544.2,885.1,544.2 M854.2,564.1c3.8,0,7.9,0.4,10.5,0.7c-2.6,6.1-6.8,14.1-9.7,15.8
			c-1.3,0.8-2.9,1.2-4.4,1.2c-3.2,0-6.1-1.7-7.7-4.4c-1.2-2-1.5-4.4-0.9-6.7c0.6-2.3,2.1-4.2,4.1-5.4
			C846.9,564.9,849,564.1,854.2,564.1 M885.1,542c-1.9,0-3.8,0.5-5.5,1.5c-5.3,3.1-11.7,19.6-11.7,19.6s7.1,1.1,13.6,1.1
			c3.7,0,7.3-0.4,9.2-1.5c5.3-3.1,7.1-9.8,4.1-15.1C892.6,543.9,888.9,542,885.1,542L885.1,542z M854.2,561.9
			c-3.7,0-7.3,0.4-9.2,1.5c-5.3,3.1-7.1,9.8-4.1,15.1c2.1,3.6,5.8,5.5,9.6,5.5c1.9,0,3.8-0.5,5.5-1.5c5.3-3.1,11.7-19.6,11.7-19.6
			S860.7,561.9,854.2,561.9L854.2,561.9z M870.1,547.5c0,1.2-2.2,8.9-2.2,8.9s-2.2-7.6-2.2-8.9s1-2.2,2.2-2.2
			C869.1,545.3,870.1,546.3,870.1,547.5L870.1,547.5z M865.6,578.5c0-1.2,2.2-8.9,2.2-8.9s2.2,7.6,2.2,8.9s-1,2.2-2.2,2.2
			C866.6,580.7,865.6,579.7,865.6,578.5L865.6,578.5z M855.5,553.3c1.1,0.6,6.6,6.3,6.6,6.3s-7.7-1.9-8.8-2.5c-1.1-0.6-1.4-2-0.8-3
			C853.1,553.1,854.5,552.7,855.5,553.3L855.5,553.3z M880.2,572.7c-1.1-0.6-6.6-6.3-6.6-6.3s7.7,1.9,8.8,2.5c1.1,0.6,1.4,2,0.8,3
			C882.6,572.9,881.2,573.3,880.2,572.7L880.2,572.7z"/>
	</g>
	<path fill="#C74343" d="M853.3,568.8c1.1-0.6,8.8-2.5,8.8-2.5s-5.5,5.7-6.6,6.3c-1.1,0.6-2.4,0.2-3-0.8
		C851.9,570.8,852.3,569.4,853.3,568.8L853.3,568.8z M882.4,557.2c-1.1,0.6-8.8,2.5-8.8,2.5s5.5-5.7,6.6-6.3c1.1-0.6,2.4-0.2,3,0.8
		C883.8,555.2,883.4,556.6,882.4,557.2L882.4,557.2z"/>
	<path fill="#FFEEA3" d="M867.8,554.1c-4.9,0-8.9,4-8.9,8.9s4,8.9,8.9,8.9s8.9-4,8.9-8.9S872.7,554.1,867.8,554.1L867.8,554.1z"/>
</g>
<g>
	<path fill="#F78F8F" d="M995.4,450.7c-5.5,0-10-4.5-10-10c0-4.3,6.5-13.7,10-18.1c3.4,4.4,10,13.8,10,18.1
		C1005.4,446.2,1000.9,450.7,995.4,450.7L995.4,450.7z M995.4,419c-3.4-4.4-10-13.8-10-18.1c0-5.5,4.5-10,10-10c5.5,0,10,4.5,10,10
		C1005.4,405.2,998.8,414.6,995.4,419L995.4,419z"/>
	<path fill="#C74343" d="M995.4,392c4.9,0,8.9,4,8.9,8.9c0,3.4-4.9,11-8.9,16.3c-4-5.3-8.9-12.9-8.9-16.3
		C986.5,396,990.5,392,995.4,392 M995.4,424.4c4,5.3,8.9,12.9,8.9,16.3c0,4.9-4,8.9-8.9,8.9c-4.9,0-8.9-4-8.9-8.9
		C986.5,437.4,991.4,429.7,995.4,424.4 M995.4,389.8c-6.1,0-11.1,5-11.1,11.1c0,6.1,11.1,19.9,11.1,19.9s11.1-13.8,11.1-19.9
		C1006.5,394.8,1001.5,389.8,995.4,389.8L995.4,389.8z M995.4,420.8c0,0-11.1,13.8-11.1,19.9s5,11.1,11.1,11.1s11.1-5,11.1-11.1
		S995.4,420.8,995.4,420.8L995.4,420.8z"/>
	<g>
		<defs>
			<rect id="SVGID_00000000223050694907165270000014561918046791425666_" x="967" y="389.8" width="56.8" height="62"/>
		</defs>
		<clipPath id="SVGID_00000093894164322664398480000010131477469790515886_">
			<use xlink:href="#SVGID_00000000223050694907165270000014561918046791425666_"  overflow="visible"/>
		</clipPath>
		<path clip-path="url(#SVGID_00000093894164322664398480000010131477469790515886_)" fill="#F78F8F" d="M1012.6,440.7
			c-1.7,0-3.5-0.5-5-1.3c-3.7-2.2-8.6-12.5-10.7-17.7c2.4-0.3,7.4-0.9,12.1-0.9c5.2,0,7.6,0.7,8.6,1.3c2.3,1.3,4,3.5,4.6,6
			c0.7,2.6,0.3,5.3-1,7.6C1019.5,438.8,1016.2,440.7,1012.6,440.7L1012.6,440.7z M981.8,420.8c-5.2,0-7.6-0.7-8.6-1.3
			c-2.3-1.3-4-3.5-4.6-6c-0.7-2.6-0.3-5.3,1-7.6c1.8-3.1,5.1-5,8.6-5c1.7,0,3.5,0.5,5,1.3c3.7,2.2,8.6,12.5,10.7,17.7
			C991.5,420.2,986.4,420.8,981.8,420.8C981.8,420.8,981.8,420.8,981.8,420.8L981.8,420.8z"/>
		<path clip-path="url(#SVGID_00000093894164322664398480000010131477469790515886_)" fill="#C74343" d="M978.1,402
			c1.5,0,3.1,0.4,4.4,1.2c2.9,1.7,7.1,9.7,9.7,15.8c-2.6,0.3-6.7,0.7-10.5,0.7c-5.3,0-7.3-0.7-8.1-1.2c-2-1.2-3.5-3.1-4.1-5.4
			c-0.6-2.3-0.3-4.7,0.9-6.7C972,403.7,975,402,978.1,402 M1009,421.9c5.3,0,7.3,0.7,8.1,1.2c4.2,2.4,5.7,7.9,3.2,12.1
			c-1.6,2.7-4.5,4.4-7.7,4.4c-1.5,0-3.1-0.4-4.4-1.2c-2.9-1.7-7.1-9.7-9.7-15.8C1001.2,422.3,1005.2,421.9,1009,421.9 M978.1,399.8
			c-3.8,0-7.5,2-9.6,5.5c-3.1,5.3-1.2,12.1,4.1,15.1c1.9,1.1,5.5,1.5,9.2,1.5c6.5,0,13.6-1.1,13.6-1.1s-6.4-16.5-11.7-19.6
			C981.9,400.2,980,399.8,978.1,399.8L978.1,399.8z M1009,419.7c-6.5,0-13.6,1.1-13.6,1.1s6.4,16.5,11.7,19.6c1.7,1,3.6,1.5,5.5,1.5
			c3.8,0,7.5-2,9.6-5.5c3.1-5.3,1.2-12.1-4.1-15.1C1016.3,420.1,1012.7,419.7,1009,419.7L1009,419.7z"/>
		<path clip-path="url(#SVGID_00000093894164322664398480000010131477469790515886_)" fill="#F78F8F" d="M978.1,440.7
			c-3.6,0-6.9-1.9-8.6-5c-1.3-2.3-1.7-5-1-7.6c0.7-2.6,2.3-4.7,4.6-6c1-0.6,3.4-1.3,8.6-1.3c4.7,0,9.7,0.6,12.1,0.9
			c-2.1,5.2-7,15.5-10.7,17.7C981.6,440.3,979.9,440.7,978.1,440.7L978.1,440.7z M1009,420.8c-4.7,0-9.7-0.6-12.1-0.9
			c2.1-5.2,7-15.5,10.7-17.7c1.5-0.9,3.2-1.3,5-1.3c3.6,0,6.9,1.9,8.6,5c1.3,2.3,1.7,5,1,7.6c-0.7,2.6-2.3,4.7-4.6,6
			C1016.6,420.1,1014.3,420.8,1009,420.8L1009,420.8z"/>
		<path clip-path="url(#SVGID_00000093894164322664398480000010131477469790515886_)" fill="#C74343" d="M1012.6,402
			c3.2,0,6.1,1.7,7.7,4.4c1.2,2,1.5,4.4,0.9,6.7c-0.6,2.3-2.1,4.2-4.1,5.4c-0.8,0.4-2.8,1.2-8.1,1.2c-3.8,0-7.9-0.4-10.5-0.7
			c2.6-6.1,6.8-14.1,9.7-15.8C1009.6,402.4,1011.1,402,1012.6,402 M981.8,421.9c3.8,0,7.9,0.4,10.5,0.7c-2.6,6.1-6.8,14.1-9.7,15.8
			c-1.3,0.8-2.9,1.2-4.4,1.2c-3.2,0-6.1-1.7-7.7-4.4c-1.2-2-1.5-4.4-0.9-6.7c0.6-2.3,2.1-4.2,4.1-5.4
			C974.5,422.7,976.5,421.9,981.8,421.9 M1012.6,399.8c-1.9,0-3.8,0.5-5.5,1.5c-5.3,3.1-11.7,19.6-11.7,19.6s7.1,1.1,13.6,1.1
			c3.7,0,7.3-0.4,9.2-1.5c5.3-3.1,7.1-9.8,4.1-15.1C1020.2,401.7,1016.5,399.8,1012.6,399.8L1012.6,399.8z M981.8,419.7
			c-3.7,0-7.3,0.4-9.2,1.5c-5.3,3.1-7.1,9.8-4.1,15.1c2.1,3.6,5.8,5.5,9.6,5.5c1.9,0,3.8-0.5,5.5-1.5c5.3-3.1,11.7-19.6,11.7-19.6
			S988.3,419.7,981.8,419.7L981.8,419.7z M997.6,405.3c0,1.2-2.2,8.9-2.2,8.9s-2.2-7.6-2.2-8.9s1-2.2,2.2-2.2
			S997.6,404.1,997.6,405.3L997.6,405.3z M993.2,436.3c0-1.2,2.2-8.9,2.2-8.9s2.2,7.6,2.2,8.9s-1,2.2-2.2,2.2
			S993.2,437.5,993.2,436.3L993.2,436.3z M983.1,411.1c1.1,0.6,6.6,6.3,6.6,6.3s-7.7-1.9-8.8-2.5c-1.1-0.6-1.4-2-0.8-3
			C980.7,410.9,982,410.5,983.1,411.1L983.1,411.1z M1007.7,430.5c-1.1-0.6-6.6-6.3-6.6-6.3s7.7,1.9,8.8,2.5c1.1,0.6,1.4,2,0.8,3
			C1010.1,430.7,1008.8,431.1,1007.7,430.5L1007.7,430.5z"/>
	</g>
	<path fill="#C74343" d="M980.9,426.6c1.1-0.6,8.8-2.5,8.8-2.5s-5.5,5.7-6.6,6.3c-1.1,0.6-2.4,0.2-3-0.8
		C979.4,428.6,979.8,427.2,980.9,426.6L980.9,426.6z M1009.9,415c-1.1,0.6-8.8,2.5-8.8,2.5s5.5-5.7,6.6-6.3c1.1-0.6,2.4-0.2,3,0.8
		C1011.3,413,1011,414.4,1009.9,415L1009.9,415z"/>
	<path fill="#FFEEA3" d="M995.4,411.9c-4.9,0-8.9,4-8.9,8.9s4,8.9,8.9,8.9s8.9-4,8.9-8.9S1000.3,411.9,995.4,411.9L995.4,411.9z"/>
</g>
<g>
	<path fill="#F78F8F" d="M1043.4,636.2c-3.8,0-6.9-3.1-6.9-6.9c0-3,4.5-9.5,6.9-12.6c2.4,3.1,6.9,9.6,6.9,12.6
		C1050.3,633.1,1047.2,636.2,1043.4,636.2L1043.4,636.2z M1043.4,614.3c-2.4-3.1-6.9-9.6-6.9-12.6c0-3.8,3.1-6.9,6.9-6.9
		c3.8,0,6.9,3.1,6.9,6.9C1050.3,604.7,1045.7,611.2,1043.4,614.3L1043.4,614.3z"/>
	<path fill="#C74343" d="M1043.4,595.5c3.4,0,6.1,2.8,6.1,6.1c0,2.3-3.4,7.6-6.1,11.3c-2.8-3.7-6.1-9-6.1-11.3
		C1037.2,598.3,1040,595.5,1043.4,595.5 M1043.4,618c2.8,3.7,6.1,9,6.1,11.3c0,3.4-2.8,6.1-6.1,6.1s-6.1-2.8-6.1-6.1
		C1037.2,627,1040.6,621.7,1043.4,618 M1043.4,594c-4.2,0-7.7,3.4-7.7,7.7s7.7,13.8,7.7,13.8s7.7-9.6,7.7-13.8
		S1047.6,594,1043.4,594L1043.4,594z M1043.4,615.5c0,0-7.7,9.6-7.7,13.8s3.4,7.7,7.7,7.7s7.7-3.4,7.7-7.7
		S1043.4,615.5,1043.4,615.5L1043.4,615.5z"/>
	<g>
		<defs>
			<rect id="SVGID_00000003816142407031462470000002224407133654091674_" x="1023.7" y="594" width="39.4" height="43"/>
		</defs>
		<clipPath id="SVGID_00000092422625020178848730000010164939588780451516_">
			<use xlink:href="#SVGID_00000003816142407031462470000002224407133654091674_"  overflow="visible"/>
		</clipPath>
		<path clip-path="url(#SVGID_00000092422625020178848730000010164939588780451516_)" fill="#F78F8F" d="M1055.3,629.3
			c-1.2,0-2.4-0.3-3.4-0.9c-2.6-1.5-6-8.7-7.4-12.3c1.6-0.2,5.1-0.6,8.4-0.6c3.6,0,5.3,0.5,6,0.9c1.6,0.9,2.7,2.4,3.2,4.2
			c0.5,1.8,0.2,3.6-0.7,5.2C1060.1,628,1057.8,629.3,1055.3,629.3L1055.3,629.3z M1033.9,615.5c-3.6,0-5.3-0.5-6-0.9
			c-1.6-0.9-2.7-2.4-3.2-4.2c-0.5-1.8-0.2-3.6,0.7-5.2c1.2-2.1,3.5-3.5,6-3.5c1.2,0,2.4,0.3,3.4,0.9c2.6,1.5,6,8.7,7.4,12.3
			C1040.6,615.1,1037.2,615.5,1033.9,615.5C1033.9,615.5,1033.9,615.5,1033.9,615.5L1033.9,615.5z"/>
		<path clip-path="url(#SVGID_00000092422625020178848730000010164939588780451516_)" fill="#C74343" d="M1031.4,602.4
			c1.1,0,2.1,0.3,3.1,0.8c2,1.2,4.9,6.7,6.7,11c-1.8,0.2-4.6,0.5-7.3,0.5c-3.6,0-5.1-0.5-5.6-0.8c-1.4-0.8-2.4-2.1-2.9-3.7
			c-0.4-1.6-0.2-3.2,0.6-4.7C1027.2,603.6,1029.2,602.4,1031.4,602.4 M1052.8,616.3c3.6,0,5.1,0.5,5.6,0.8c2.9,1.7,3.9,5.5,2.2,8.4
			c-1.1,1.9-3.1,3.1-5.3,3.1c-1.1,0-2.1-0.3-3.1-0.8c-2-1.2-4.9-6.7-6.7-11C1047.4,616.6,1050.2,616.3,1052.8,616.3 M1031.4,600.9
			c-2.7,0-5.2,1.4-6.7,3.8c-2.1,3.7-0.9,8.4,2.8,10.5c1.3,0.8,3.8,1,6.4,1c4.5,0,9.4-0.8,9.4-0.8s-4.5-11.4-8.1-13.6
			C1034,601.2,1032.7,600.9,1031.4,600.9L1031.4,600.9z M1052.8,614.7c-4.5,0-9.4,0.8-9.4,0.8s4.5,11.4,8.1,13.6
			c1.2,0.7,2.5,1,3.8,1c2.7,0,5.2-1.4,6.7-3.8c2.1-3.7,0.9-8.4-2.8-10.5C1057.8,615,1055.4,614.7,1052.8,614.7L1052.8,614.7z"/>
		<path clip-path="url(#SVGID_00000092422625020178848730000010164939588780451516_)" fill="#F78F8F" d="M1031.4,629.3
			c-2.5,0-4.8-1.3-6-3.5c-0.9-1.6-1.2-3.5-0.7-5.2c0.5-1.8,1.6-3.3,3.2-4.2c0.7-0.4,2.3-0.9,6-0.9c3.2,0,6.7,0.4,8.4,0.6
			c-1.5,3.6-4.9,10.8-7.4,12.3C1033.8,629,1032.6,629.3,1031.4,629.3L1031.4,629.3z M1052.8,615.5c-3.2,0-6.7-0.4-8.4-0.6
			c1.5-3.6,4.9-10.8,7.4-12.3c1.1-0.6,2.2-0.9,3.4-0.9c2.5,0,4.8,1.3,6,3.5c0.9,1.6,1.2,3.5,0.7,5.2c-0.5,1.8-1.6,3.3-3.2,4.2
			C1058.1,615,1056.5,615.5,1052.8,615.5L1052.8,615.5z"/>
		<path clip-path="url(#SVGID_00000092422625020178848730000010164939588780451516_)" fill="#C74343" d="M1055.3,602.4
			c2.2,0,4.2,1.2,5.3,3.1c0.8,1.4,1,3.1,0.6,4.7c-0.4,1.6-1.4,2.9-2.9,3.7c-0.5,0.3-1.9,0.8-5.6,0.8c-2.6,0-5.5-0.3-7.3-0.5
			c1.8-4.2,4.7-9.8,6.7-11C1053.2,602.7,1054.3,602.4,1055.3,602.4 M1033.9,616.3c2.6,0,5.5,0.3,7.3,0.5c-1.8,4.2-4.7,9.8-6.7,11
			c-0.9,0.5-2,0.8-3.1,0.8c-2.2,0-4.2-1.2-5.3-3.1c-0.8-1.4-1-3.1-0.6-4.7c0.4-1.6,1.4-2.9,2.9-3.7
			C1028.9,616.8,1030.3,616.3,1033.9,616.3 M1055.3,600.9c-1.3,0-2.6,0.3-3.8,1c-3.7,2.1-8.1,13.6-8.1,13.6s4.9,0.8,9.4,0.8
			c2.6,0,5-0.2,6.4-1c3.7-2.1,4.9-6.8,2.8-10.5C1060.6,602.3,1058,600.9,1055.3,600.9L1055.3,600.9z M1033.9,614.7
			c-2.6,0-5,0.2-6.4,1c-3.7,2.1-4.9,6.8-2.8,10.5c1.4,2.5,4,3.8,6.7,3.8c1.3,0,2.6-0.3,3.8-1c3.7-2.1,8.1-13.6,8.1-13.6
			S1038.4,614.7,1033.9,614.7L1033.9,614.7z M1044.9,604.8c0,0.8-1.5,6.1-1.5,6.1s-1.5-5.3-1.5-6.1s0.7-1.5,1.5-1.5
			C1044.2,603.2,1044.9,603.9,1044.9,604.8L1044.9,604.8z M1041.8,626.2c0-0.8,1.5-6.1,1.5-6.1s1.5,5.3,1.5,6.1s-0.7,1.5-1.5,1.5
			C1042.5,627.8,1041.8,627.1,1041.8,626.2L1041.8,626.2z M1034.8,608.8c0.7,0.4,4.6,4.4,4.6,4.4s-5.4-1.3-6.1-1.7
			c-0.7-0.4-1-1.4-0.6-2.1C1033.2,608.6,1034.1,608.4,1034.8,608.8L1034.8,608.8z M1051.9,622.2c-0.7-0.4-4.6-4.4-4.6-4.4
			s5.4,1.3,6.1,1.7c0.7,0.4,1,1.4,0.6,2.1C1053.6,622.4,1052.6,622.6,1051.9,622.2L1051.9,622.2z"/>
	</g>
	<path fill="#C74343" d="M1033.3,619.5c0.7-0.4,6.1-1.7,6.1-1.7s-3.8,4-4.6,4.4c-0.7,0.4-1.7,0.2-2.1-0.6
		C1032.3,620.9,1032.6,620,1033.3,619.5L1033.3,619.5z M1053.4,611.5c-0.7,0.4-6.1,1.7-6.1,1.7s3.8-4,4.6-4.4
		c0.7-0.4,1.7-0.2,2.1,0.6C1054.4,610.1,1054.2,611,1053.4,611.5L1053.4,611.5z"/>
	<path fill="#FFEEA3" d="M1043.4,609.4c-3.4,0-6.1,2.8-6.1,6.1s2.8,6.1,6.1,6.1c3.4,0,6.1-2.8,6.1-6.1S1046.8,609.4,1043.4,609.4
		L1043.4,609.4z"/>
</g>
</svg>
