<?xml version="1.0" encoding="utf-8"?>
<!-- Generator: Adobe Illustrator 29.0.0, SVG Export Plug-In . SVG Version: 9.03 Build 54978)  -->
<svg version="1.1" baseProfile="basic" id="Layer_1"
	 xmlns="http://www.w3.org/2000/svg" xmlns:xlink="http://www.w3.org/1999/xlink" x="0px" y="0px" viewBox="0 0 1920 1080"
	 xml:space="preserve">
<path fill="#552000" d="M959.4,761c-6.8,0-12-5.2-12-12V463.8c0-6.8,5.2-12,12-12c6.8,0,12,5.2,12,12V749
	C971.4,755.4,966.2,761,959.4,761L959.4,761z"/>
<path fill="#552000" d="M959.4,555c-1.6,0-3.6-0.4-5.2-1.2l-72.8-34.4c-6-2.8-8.4-10-5.6-16c2.8-6,10-8.4,16-5.6l72.8,34.8
	c6,2.8,8.4,10,5.6,16C968.2,552.6,963.8,555,959.4,555L959.4,555z M959.4,628.6c-4.4,0-8.8-2.4-10.8-6.8c-2.8-6-0.4-13.2,5.2-16
	l72.4-36c6-2.8,13.2-0.4,16,5.2c2.8,6,0.4,13.2-5.2,16l-72.4,36C963,628.2,961.4,628.6,959.4,628.6L959.4,628.6z"/>
</svg>
