<?xml version="1.0" encoding="utf-8"?>
<!-- Generator: Adobe Illustrator 29.0.0, SVG Export Plug-In . SVG Version: 9.03 Build 54978)  -->
<svg version="1.1" baseProfile="basic" id="Layer_1"
	 xmlns="http://www.w3.org/2000/svg" xmlns:xlink="http://www.w3.org/1999/xlink" x="0px" y="0px" viewBox="0 0 1920 1080"
	 xml:space="preserve">
<path fill="#FF8B55" d="M1052.6,467c6.8-12.8,10.8-27.2,10.8-42.8c0-50.4-40.8-91.6-91.2-91.6c-50.4,0-91.2,41.2-91.2,91.6
	c0,2,0,4.4,0.4,6.4C834.6,446.6,801,491,801,543c0,65.6,52.8,118.8,118.4,118.8h98.4c55.2,0,100-45.2,100-100.4
	C1117.8,518.2,1090.6,481.4,1052.6,467"/>
<path fill="#D46600" d="M972.2,332.6C972.2,332.6,972.2,332.6,972.2,332.6C972.1,332.6,972.1,332.6,972.2,332.6c-0.1,0-0.1,0-0.1,0
	c0,0,0,0,0,0c-14.3,0-27.9,3.4-39.9,9.3c-5.3,2.6-10.4,5.8-15.1,9.5c2.4-0.4,5.2-0.4,7.6-0.4c50.4,0,91.2,40.8,91.2,91.6
	c0,15.6-4,30-10.8,42.8c38,14.4,65.2,51.2,65.2,94.4c0,33.5-16.3,63-41.3,81.4c50-5.6,88.9-48.3,88.9-99.7c0,0,0,0,0,0
	c0,0,0-0.1,0-0.1c0-43.2-27.2-80-65.2-94.4c6.8-12.8,10.8-27.2,10.8-42.8C1063.4,373.8,1022.6,332.6,972.2,332.6"/>
<path fill="#7F3300" d="M1017.8,674.2h-98.4c-72,0-130.4-58.8-130.4-130.8c0-53.2,32-100.4,80-120.8c1.2-56,46.8-101.6,103.2-101.6
	c56.8,0,103.2,46.4,103.2,103.6c0,12.4-2.4,25.2-6.8,36.8c37.2,19.2,61.2,58,61.2,100.4C1129.8,623.4,1079.4,674.2,1017.8,674.2
	L1017.8,674.2z M972.2,345c-43.6,0-79.2,35.6-79.2,79.6c0,2,0,3.6,0.4,5.6c0.4,5.6-2.8,10.4-8,12C841.8,456.6,813,497.4,813,543
	c0,58.8,47.6,106.8,106.4,106.8h98.4c48.8,0,88-39.6,88-88.4c0-36.8-23.2-70.4-57.6-83.2c-3.2-1.2-5.6-3.6-7.2-6.8
	c-1.6-3.2-1.2-6.8,0.8-10c6-11.2,9.2-24.4,9.2-37.2C1051.4,380.6,1015.8,345,972.2,345L972.2,345z"/>
<path fill="#7F3300" d="M959.4,761c-6.8,0-12-5.2-12-12V463.8c0-6.8,5.2-12,12-12c6.8,0,12,5.2,12,12V749
	C971.4,755.4,966.2,761,959.4,761L959.4,761z"/>
<path fill="#7F3300" d="M959.4,555c-1.6,0-3.6-0.4-5.2-1.2l-72.8-34.4c-6-2.8-8.4-10-5.6-16c2.8-6,10-8.4,16-5.6l72.8,34.8
	c6,2.8,8.4,10,5.6,16C968.2,552.6,963.8,555,959.4,555L959.4,555z M959.4,628.6c-4.4,0-8.8-2.4-10.8-6.8c-2.8-6-0.4-13.2,5.2-16
	l72.4-36c6-2.8,13.2-0.4,16,5.2c2.8,6,0.4,13.2-5.2,16l-72.4,36C963,628.2,961.4,628.6,959.4,628.6L959.4,628.6z"/>
</svg>
